<mxfile host="app.diagrams.net" agent="Mozilla/5.0 (Windows NT 10.0; Win64; x64) AppleWebKit/537.36 (KHTML, like Gecko) Chrome/136.0.0.0 Safari/537.36" version="27.0.5">
  <diagram id="sqEcmZHiY_WhuH3TakE4" name="Страница — 1">
    <mxGraphModel dx="1426" dy="785" grid="1" gridSize="10" guides="1" tooltips="1" connect="1" arrows="1" fold="1" page="1" pageScale="1" pageWidth="827" pageHeight="1169" math="0" shadow="0">
      <root>
        <mxCell id="0" />
        <mxCell id="1" parent="0" />
        <mxCell id="AXvsAUzgc4_ThszHaNPA-26" style="edgeStyle=orthogonalEdgeStyle;rounded=0;orthogonalLoop=1;jettySize=auto;html=1;" edge="1" parent="1" source="AXvsAUzgc4_ThszHaNPA-1" target="AXvsAUzgc4_ThszHaNPA-24">
          <mxGeometry relative="1" as="geometry" />
        </mxCell>
        <mxCell id="AXvsAUzgc4_ThszHaNPA-1" value="&lt;font style=&quot;font-size: 17px;&quot;&gt;x&lt;/font&gt;" style="ellipse;whiteSpace=wrap;html=1;aspect=fixed;" vertex="1" parent="1">
          <mxGeometry x="200" y="380" width="30" height="30" as="geometry" />
        </mxCell>
        <mxCell id="AXvsAUzgc4_ThszHaNPA-14" style="edgeStyle=orthogonalEdgeStyle;rounded=0;orthogonalLoop=1;jettySize=auto;html=1;entryX=0;entryY=0.5;entryDx=0;entryDy=0;" edge="1" parent="1" source="AXvsAUzgc4_ThszHaNPA-3" target="AXvsAUzgc4_ThszHaNPA-13">
          <mxGeometry relative="1" as="geometry" />
        </mxCell>
        <mxCell id="AXvsAUzgc4_ThszHaNPA-3" value="&lt;font style=&quot;font-size: 18px;&quot;&gt;A [N-1:0]&lt;/font&gt;" style="text;html=1;align=center;verticalAlign=middle;resizable=0;points=[];autosize=1;strokeColor=none;fillColor=none;strokeWidth=1;" vertex="1" parent="1">
          <mxGeometry x="35" y="220" width="90" height="40" as="geometry" />
        </mxCell>
        <mxCell id="AXvsAUzgc4_ThszHaNPA-15" style="edgeStyle=orthogonalEdgeStyle;rounded=0;orthogonalLoop=1;jettySize=auto;html=1;entryX=0.5;entryY=1;entryDx=0;entryDy=0;" edge="1" parent="1" source="AXvsAUzgc4_ThszHaNPA-7" target="AXvsAUzgc4_ThszHaNPA-13">
          <mxGeometry relative="1" as="geometry" />
        </mxCell>
        <mxCell id="AXvsAUzgc4_ThszHaNPA-7" value="&lt;font style=&quot;font-size: 18px;&quot;&gt;B [N-1:0]&lt;/font&gt;" style="text;html=1;align=center;verticalAlign=middle;resizable=0;points=[];autosize=1;strokeColor=none;fillColor=none;strokeWidth=1;" vertex="1" parent="1">
          <mxGeometry x="35" y="280" width="90" height="40" as="geometry" />
        </mxCell>
        <mxCell id="AXvsAUzgc4_ThszHaNPA-30" style="edgeStyle=orthogonalEdgeStyle;rounded=0;orthogonalLoop=1;jettySize=auto;html=1;entryX=0.5;entryY=1;entryDx=0;entryDy=0;" edge="1" parent="1" source="AXvsAUzgc4_ThszHaNPA-8" target="AXvsAUzgc4_ThszHaNPA-31">
          <mxGeometry relative="1" as="geometry">
            <mxPoint x="460" y="340" as="targetPoint" />
          </mxGeometry>
        </mxCell>
        <mxCell id="AXvsAUzgc4_ThszHaNPA-8" value="&lt;font style=&quot;font-size: 18px;&quot;&gt;D [N-1:0]&lt;/font&gt;" style="text;html=1;align=center;verticalAlign=middle;resizable=0;points=[];autosize=1;strokeColor=none;fillColor=none;strokeWidth=1;" vertex="1" parent="1">
          <mxGeometry x="35" y="490" width="100" height="40" as="geometry" />
        </mxCell>
        <mxCell id="AXvsAUzgc4_ThszHaNPA-22" style="edgeStyle=orthogonalEdgeStyle;rounded=0;orthogonalLoop=1;jettySize=auto;html=1;entryX=0.5;entryY=0;entryDx=0;entryDy=0;" edge="1" parent="1" source="AXvsAUzgc4_ThszHaNPA-9" target="AXvsAUzgc4_ThszHaNPA-1">
          <mxGeometry relative="1" as="geometry" />
        </mxCell>
        <mxCell id="AXvsAUzgc4_ThszHaNPA-9" value="&lt;font style=&quot;font-size: 18px;&quot;&gt;C [N-1:0]&lt;/font&gt;" style="text;html=1;align=center;verticalAlign=middle;resizable=0;points=[];autosize=1;strokeColor=none;fillColor=none;strokeWidth=1;" vertex="1" parent="1">
          <mxGeometry x="30" y="340" width="100" height="40" as="geometry" />
        </mxCell>
        <mxCell id="AXvsAUzgc4_ThszHaNPA-20" style="edgeStyle=orthogonalEdgeStyle;rounded=0;orthogonalLoop=1;jettySize=auto;html=1;entryX=0.5;entryY=0;entryDx=0;entryDy=0;" edge="1" parent="1" source="AXvsAUzgc4_ThszHaNPA-10" target="AXvsAUzgc4_ThszHaNPA-18">
          <mxGeometry relative="1" as="geometry" />
        </mxCell>
        <mxCell id="AXvsAUzgc4_ThszHaNPA-32" style="edgeStyle=orthogonalEdgeStyle;rounded=0;orthogonalLoop=1;jettySize=auto;html=1;entryX=0.5;entryY=0;entryDx=0;entryDy=0;" edge="1" parent="1" source="AXvsAUzgc4_ThszHaNPA-10" target="AXvsAUzgc4_ThszHaNPA-31">
          <mxGeometry relative="1" as="geometry" />
        </mxCell>
        <mxCell id="AXvsAUzgc4_ThszHaNPA-10" value="&lt;font style=&quot;font-size: 18px;&quot;&gt;2 [1:0]&lt;/font&gt;" style="text;html=1;align=center;verticalAlign=middle;resizable=0;points=[];autosize=1;strokeColor=none;fillColor=none;strokeWidth=1;" vertex="1" parent="1">
          <mxGeometry x="45" y="160" width="70" height="40" as="geometry" />
        </mxCell>
        <mxCell id="AXvsAUzgc4_ThszHaNPA-23" value="" style="edgeStyle=orthogonalEdgeStyle;rounded=0;orthogonalLoop=1;jettySize=auto;html=1;" edge="1" parent="1" source="AXvsAUzgc4_ThszHaNPA-11" target="AXvsAUzgc4_ThszHaNPA-1">
          <mxGeometry relative="1" as="geometry" />
        </mxCell>
        <mxCell id="AXvsAUzgc4_ThszHaNPA-11" value="&lt;font style=&quot;font-size: 18px;&quot;&gt;3 [1:0]&lt;/font&gt;" style="text;html=1;align=center;verticalAlign=middle;resizable=0;points=[];autosize=1;strokeColor=none;fillColor=none;strokeWidth=1;" vertex="1" parent="1">
          <mxGeometry x="45" y="400" width="70" height="40" as="geometry" />
        </mxCell>
        <mxCell id="AXvsAUzgc4_ThszHaNPA-25" style="edgeStyle=orthogonalEdgeStyle;rounded=0;orthogonalLoop=1;jettySize=auto;html=1;entryX=0.5;entryY=1;entryDx=0;entryDy=0;" edge="1" parent="1" source="AXvsAUzgc4_ThszHaNPA-12" target="AXvsAUzgc4_ThszHaNPA-24">
          <mxGeometry relative="1" as="geometry" />
        </mxCell>
        <mxCell id="AXvsAUzgc4_ThszHaNPA-12" value="&lt;font style=&quot;font-size: 18px;&quot;&gt;1&lt;/font&gt;" style="text;html=1;align=center;verticalAlign=middle;resizable=0;points=[];autosize=1;strokeColor=none;fillColor=none;strokeWidth=1;" vertex="1" parent="1">
          <mxGeometry x="65" y="450" width="30" height="40" as="geometry" />
        </mxCell>
        <mxCell id="AXvsAUzgc4_ThszHaNPA-19" value="" style="edgeStyle=orthogonalEdgeStyle;rounded=0;orthogonalLoop=1;jettySize=auto;html=1;" edge="1" parent="1" source="AXvsAUzgc4_ThszHaNPA-13" target="AXvsAUzgc4_ThszHaNPA-18">
          <mxGeometry relative="1" as="geometry" />
        </mxCell>
        <mxCell id="AXvsAUzgc4_ThszHaNPA-13" value="&lt;font style=&quot;font-size: 17px;&quot;&gt;+&lt;/font&gt;" style="ellipse;whiteSpace=wrap;html=1;aspect=fixed;" vertex="1" parent="1">
          <mxGeometry x="200" y="225" width="30" height="30" as="geometry" />
        </mxCell>
        <mxCell id="AXvsAUzgc4_ThszHaNPA-16" value="&lt;font style=&quot;font-size: 17px;&quot;&gt;-&lt;/font&gt;" style="text;html=1;align=center;verticalAlign=middle;resizable=0;points=[];autosize=1;strokeColor=none;fillColor=none;" vertex="1" parent="1">
          <mxGeometry x="210" y="250" width="30" height="30" as="geometry" />
        </mxCell>
        <mxCell id="AXvsAUzgc4_ThszHaNPA-28" style="edgeStyle=orthogonalEdgeStyle;rounded=0;orthogonalLoop=1;jettySize=auto;html=1;entryX=0;entryY=0.5;entryDx=0;entryDy=0;" edge="1" parent="1" source="AXvsAUzgc4_ThszHaNPA-18" target="AXvsAUzgc4_ThszHaNPA-27">
          <mxGeometry relative="1" as="geometry" />
        </mxCell>
        <mxCell id="AXvsAUzgc4_ThszHaNPA-18" value="Div" style="whiteSpace=wrap;html=1;" vertex="1" parent="1">
          <mxGeometry x="260" y="210" width="30" height="60" as="geometry" />
        </mxCell>
        <mxCell id="AXvsAUzgc4_ThszHaNPA-29" style="edgeStyle=orthogonalEdgeStyle;rounded=0;orthogonalLoop=1;jettySize=auto;html=1;entryX=0.5;entryY=1;entryDx=0;entryDy=0;" edge="1" parent="1" source="AXvsAUzgc4_ThszHaNPA-24" target="AXvsAUzgc4_ThszHaNPA-27">
          <mxGeometry relative="1" as="geometry" />
        </mxCell>
        <mxCell id="AXvsAUzgc4_ThszHaNPA-24" value="&lt;font style=&quot;font-size: 17px;&quot;&gt;+&lt;/font&gt;" style="ellipse;whiteSpace=wrap;html=1;aspect=fixed;" vertex="1" parent="1">
          <mxGeometry x="260" y="380" width="30" height="30" as="geometry" />
        </mxCell>
        <mxCell id="AXvsAUzgc4_ThszHaNPA-33" style="edgeStyle=orthogonalEdgeStyle;rounded=0;orthogonalLoop=1;jettySize=auto;html=1;" edge="1" parent="1" source="AXvsAUzgc4_ThszHaNPA-27">
          <mxGeometry relative="1" as="geometry">
            <mxPoint x="530" y="240" as="targetPoint" />
          </mxGeometry>
        </mxCell>
        <mxCell id="AXvsAUzgc4_ThszHaNPA-27" value="&lt;font style=&quot;font-size: 17px;&quot;&gt;x&lt;/font&gt;" style="ellipse;whiteSpace=wrap;html=1;aspect=fixed;" vertex="1" parent="1">
          <mxGeometry x="350" y="225" width="30" height="30" as="geometry" />
        </mxCell>
        <mxCell id="AXvsAUzgc4_ThszHaNPA-35" style="edgeStyle=orthogonalEdgeStyle;rounded=0;orthogonalLoop=1;jettySize=auto;html=1;entryX=0.5;entryY=1;entryDx=0;entryDy=0;" edge="1" parent="1" source="AXvsAUzgc4_ThszHaNPA-31" target="AXvsAUzgc4_ThszHaNPA-34">
          <mxGeometry relative="1" as="geometry" />
        </mxCell>
        <mxCell id="AXvsAUzgc4_ThszHaNPA-31" value="&lt;font style=&quot;font-size: 17px;&quot;&gt;x&lt;/font&gt;" style="ellipse;whiteSpace=wrap;html=1;aspect=fixed;" vertex="1" parent="1">
          <mxGeometry x="440" y="310" width="30" height="30" as="geometry" />
        </mxCell>
        <mxCell id="AXvsAUzgc4_ThszHaNPA-37" style="edgeStyle=orthogonalEdgeStyle;rounded=0;orthogonalLoop=1;jettySize=auto;html=1;" edge="1" parent="1" source="AXvsAUzgc4_ThszHaNPA-34">
          <mxGeometry relative="1" as="geometry">
            <mxPoint x="660" y="240" as="targetPoint" />
          </mxGeometry>
        </mxCell>
        <mxCell id="AXvsAUzgc4_ThszHaNPA-34" value="&lt;font style=&quot;font-size: 17px;&quot;&gt;+&lt;/font&gt;" style="ellipse;whiteSpace=wrap;html=1;aspect=fixed;" vertex="1" parent="1">
          <mxGeometry x="530" y="225" width="30" height="30" as="geometry" />
        </mxCell>
        <mxCell id="AXvsAUzgc4_ThszHaNPA-36" value="&lt;font style=&quot;font-size: 17px;&quot;&gt;-&lt;/font&gt;" style="text;html=1;align=center;verticalAlign=middle;resizable=0;points=[];autosize=1;strokeColor=none;fillColor=none;" vertex="1" parent="1">
          <mxGeometry x="550" y="250" width="30" height="30" as="geometry" />
        </mxCell>
        <mxCell id="AXvsAUzgc4_ThszHaNPA-38" value="&lt;font style=&quot;font-size: 18px;&quot;&gt;Q [N : 0]&lt;/font&gt;" style="text;html=1;align=center;verticalAlign=middle;resizable=0;points=[];autosize=1;strokeColor=none;fillColor=none;strokeWidth=1;" vertex="1" parent="1">
          <mxGeometry x="600" y="200" width="90" height="40" as="geometry" />
        </mxCell>
      </root>
    </mxGraphModel>
  </diagram>
</mxfile>
